<svg width="1920" height="2088" viewBox="0 0 1920 2088" fill="none" xmlns="http://www.w3.org/2000/svg">
<g filter="url(#filter0_f_2542_5872)">
<path d="M2057.34 448.209C2035.81 402.253 1909.35 386.854 1774.88 413.814C1640.41 440.774 1548.85 499.884 1570.38 545.839C1591.91 591.795 1718.37 607.194 1852.84 580.234C1987.31 553.274 2078.87 494.164 2057.34 448.209Z" fill="#AD91FE"/>
</g>
<g filter="url(#filter1_f_2542_5872)">
<ellipse cx="501" cy="266" rx="501" ry="266" transform="matrix(0.966768 0.255656 0.255656 -0.966768 356.211 1491.32)" fill="#45BDDE" fill-opacity="0.5"/>
</g>
<g filter="url(#filter2_f_2542_5872)">
<path d="M845.198 1351.56C812.607 1245.21 621.161 1209.58 417.593 1271.96C214.024 1334.35 75.4199 1471.14 108.011 1577.48C140.603 1683.83 332.048 1719.46 535.617 1657.07C739.185 1594.69 877.79 1457.9 845.198 1351.56Z" fill="#AD91FE"/>
</g>
<defs>
<filter id="filter0_f_2542_5872" x="1167.25" y="0.537109" width="1293.23" height="992.975" filterUnits="userSpaceOnUse" color-interpolation-filters="sRGB">
<feFlood flood-opacity="0" result="BackgroundImageFix"/>
<feBlend mode="normal" in="SourceGraphic" in2="BackgroundImageFix" result="shape"/>
<feGaussianBlur stdDeviation="200" result="effect1_foregroundBlur_2542_5872"/>
</filter>
<filter id="filter1_f_2542_5872" x="19.4023" y="674.889" width="1778.32" height="1374.71" filterUnits="userSpaceOnUse" color-interpolation-filters="sRGB">
<feFlood flood-opacity="0" result="BackgroundImageFix"/>
<feBlend mode="normal" in="SourceGraphic" in2="BackgroundImageFix" result="shape"/>
<feGaussianBlur stdDeviation="200" result="effect1_foregroundBlur_2542_5872"/>
</filter>
<filter id="filter2_f_2542_5872" x="-296.738" y="841.238" width="1546.69" height="1246.56" filterUnits="userSpaceOnUse" color-interpolation-filters="sRGB">
<feFlood flood-opacity="0" result="BackgroundImageFix"/>
<feBlend mode="normal" in="SourceGraphic" in2="BackgroundImageFix" result="shape"/>
<feGaussianBlur stdDeviation="200" result="effect1_foregroundBlur_2542_5872"/>
</filter>
</defs>
</svg>
